%TF.GenerationSoftware,KiCad,Pcbnew,(5.99.0-6951-g72beaf1538)*%
%TF.CreationDate,2020-11-29T14:33:23+11:00*%
%TF.ProjectId,contact-block-v4,636f6e74-6163-4742-9d62-6c6f636b2d76,rev?*%
%TF.SameCoordinates,Original*%
%TF.FileFunction,Profile,NP*%
%FSLAX46Y46*%
G04 Gerber Fmt 4.6, Leading zero omitted, Abs format (unit mm)*
G04 Created by KiCad (PCBNEW (5.99.0-6951-g72beaf1538)) date 2020-11-29 14:33:23*
%MOMM*%
%LPD*%
G01*
G04 APERTURE LIST*
%TA.AperFunction,Profile*%
%ADD10C,0.100000*%
%TD*%
G04 APERTURE END LIST*
D10*
X132080000Y-91948000D02*
X132080000Y-89916000D01*
X96139000Y-91948000D02*
X98425000Y-91948000D01*
X138322214Y-88280372D02*
G75*
G03*
X138684000Y-87249000I-1289214J1031372D01*
G01*
X126619000Y-89916000D02*
X126619000Y-91948000D01*
X98425000Y-81534000D02*
X96139000Y-81534000D01*
X136271000Y-81788000D02*
X138684000Y-81788000D01*
X102616000Y-89916000D02*
X102616000Y-91948000D01*
X108077000Y-91948000D02*
X108077000Y-89916000D01*
X98425000Y-81534000D02*
X98425000Y-80010000D01*
X131064000Y-72771000D02*
X136271000Y-80010000D01*
X108077000Y-89916000D02*
X102616000Y-89916000D01*
X102616000Y-91948000D02*
X98425000Y-91948000D01*
X138684000Y-81788000D02*
X138684000Y-87249000D01*
X132080000Y-89916000D02*
X126619000Y-89916000D01*
X135128000Y-91940287D02*
G75*
G03*
X136778999Y-91017717I0J1938569D01*
G01*
X136271000Y-80010000D02*
X136271000Y-81788000D01*
X126619000Y-91948000D02*
X108077000Y-91948000D01*
X98425000Y-80010000D02*
X103632000Y-72771000D01*
X135128000Y-91940288D02*
X132080000Y-91948000D01*
X103632000Y-72771000D02*
X131064000Y-72771000D01*
X96139000Y-81534000D02*
X96139000Y-91948000D01*
X138322214Y-88280371D02*
X136778999Y-91017717D01*
M02*
