%TF.GenerationSoftware,KiCad,Pcbnew,(5.99.0-6951-g72beaf1538)*%
%TF.CreationDate,2020-11-29T14:33:23+11:00*%
%TF.ProjectId,contact-block-v4,636f6e74-6163-4742-9d62-6c6f636b2d76,rev?*%
%TF.SameCoordinates,Original*%
%TF.FileFunction,Legend,Bot*%
%TF.FilePolarity,Positive*%
%FSLAX46Y46*%
G04 Gerber Fmt 4.6, Leading zero omitted, Abs format (unit mm)*
G04 Created by KiCad (PCBNEW (5.99.0-6951-g72beaf1538)) date 2020-11-29 14:33:23*
%MOMM*%
%LPD*%
G01*
G04 APERTURE LIST*
%ADD10C,0.250000*%
G04 APERTURE END LIST*
D10*
X125006761Y-77469380D02*
X125006761Y-78278904D01*
X124959142Y-78374142D01*
X124911523Y-78421761D01*
X124816285Y-78469380D01*
X124625809Y-78469380D01*
X124530571Y-78421761D01*
X124482952Y-78374142D01*
X124435333Y-78278904D01*
X124435333Y-77469380D01*
X124006761Y-78421761D02*
X123863904Y-78469380D01*
X123625809Y-78469380D01*
X123530571Y-78421761D01*
X123482952Y-78374142D01*
X123435333Y-78278904D01*
X123435333Y-78183666D01*
X123482952Y-78088428D01*
X123530571Y-78040809D01*
X123625809Y-77993190D01*
X123816285Y-77945571D01*
X123911523Y-77897952D01*
X123959142Y-77850333D01*
X124006761Y-77755095D01*
X124006761Y-77659857D01*
X123959142Y-77564619D01*
X123911523Y-77517000D01*
X123816285Y-77469380D01*
X123578190Y-77469380D01*
X123435333Y-77517000D01*
X122673428Y-77945571D02*
X122530571Y-77993190D01*
X122482952Y-78040809D01*
X122435333Y-78136047D01*
X122435333Y-78278904D01*
X122482952Y-78374142D01*
X122530571Y-78421761D01*
X122625809Y-78469380D01*
X123006761Y-78469380D01*
X123006761Y-77469380D01*
X122673428Y-77469380D01*
X122578190Y-77517000D01*
X122530571Y-77564619D01*
X122482952Y-77659857D01*
X122482952Y-77755095D01*
X122530571Y-77850333D01*
X122578190Y-77897952D01*
X122673428Y-77945571D01*
X123006761Y-77945571D01*
X120911523Y-77945571D02*
X120768666Y-77993190D01*
X120721047Y-78040809D01*
X120673428Y-78136047D01*
X120673428Y-78278904D01*
X120721047Y-78374142D01*
X120768666Y-78421761D01*
X120863904Y-78469380D01*
X121244857Y-78469380D01*
X121244857Y-77469380D01*
X120911523Y-77469380D01*
X120816285Y-77517000D01*
X120768666Y-77564619D01*
X120721047Y-77659857D01*
X120721047Y-77755095D01*
X120768666Y-77850333D01*
X120816285Y-77897952D01*
X120911523Y-77945571D01*
X121244857Y-77945571D01*
X120244857Y-78469380D02*
X120244857Y-77802714D01*
X120244857Y-77469380D02*
X120292476Y-77517000D01*
X120244857Y-77564619D01*
X120197238Y-77517000D01*
X120244857Y-77469380D01*
X120244857Y-77564619D01*
X119340095Y-77802714D02*
X119340095Y-78612238D01*
X119387714Y-78707476D01*
X119435333Y-78755095D01*
X119530571Y-78802714D01*
X119673428Y-78802714D01*
X119768666Y-78755095D01*
X119340095Y-78421761D02*
X119435333Y-78469380D01*
X119625809Y-78469380D01*
X119721047Y-78421761D01*
X119768666Y-78374142D01*
X119816285Y-78278904D01*
X119816285Y-77993190D01*
X119768666Y-77897952D01*
X119721047Y-77850333D01*
X119625809Y-77802714D01*
X119435333Y-77802714D01*
X119340095Y-77850333D01*
X117530571Y-78469380D02*
X117863904Y-77993190D01*
X118102000Y-78469380D02*
X118102000Y-77469380D01*
X117721047Y-77469380D01*
X117625809Y-77517000D01*
X117578190Y-77564619D01*
X117530571Y-77659857D01*
X117530571Y-77802714D01*
X117578190Y-77897952D01*
X117625809Y-77945571D01*
X117721047Y-77993190D01*
X118102000Y-77993190D01*
X116721047Y-78421761D02*
X116816285Y-78469380D01*
X117006761Y-78469380D01*
X117102000Y-78421761D01*
X117149619Y-78326523D01*
X117149619Y-77945571D01*
X117102000Y-77850333D01*
X117006761Y-77802714D01*
X116816285Y-77802714D01*
X116721047Y-77850333D01*
X116673428Y-77945571D01*
X116673428Y-78040809D01*
X117149619Y-78136047D01*
X115816285Y-78469380D02*
X115816285Y-77469380D01*
X115816285Y-78421761D02*
X115911523Y-78469380D01*
X116102000Y-78469380D01*
X116197238Y-78421761D01*
X116244857Y-78374142D01*
X116292476Y-78278904D01*
X116292476Y-77993190D01*
X116244857Y-77897952D01*
X116197238Y-77850333D01*
X116102000Y-77802714D01*
X115911523Y-77802714D01*
X115816285Y-77850333D01*
X114244857Y-77945571D02*
X114102000Y-77993190D01*
X114054380Y-78040809D01*
X114006761Y-78136047D01*
X114006761Y-78278904D01*
X114054380Y-78374142D01*
X114102000Y-78421761D01*
X114197238Y-78469380D01*
X114578190Y-78469380D01*
X114578190Y-77469380D01*
X114244857Y-77469380D01*
X114149619Y-77517000D01*
X114102000Y-77564619D01*
X114054380Y-77659857D01*
X114054380Y-77755095D01*
X114102000Y-77850333D01*
X114149619Y-77897952D01*
X114244857Y-77945571D01*
X114578190Y-77945571D01*
X113149619Y-77802714D02*
X113149619Y-78469380D01*
X113578190Y-77802714D02*
X113578190Y-78326523D01*
X113530571Y-78421761D01*
X113435333Y-78469380D01*
X113292476Y-78469380D01*
X113197238Y-78421761D01*
X113149619Y-78374142D01*
X112816285Y-77802714D02*
X112435333Y-77802714D01*
X112673428Y-77469380D02*
X112673428Y-78326523D01*
X112625809Y-78421761D01*
X112530571Y-78469380D01*
X112435333Y-78469380D01*
X112244857Y-77802714D02*
X111863904Y-77802714D01*
X112102000Y-77469380D02*
X112102000Y-78326523D01*
X112054380Y-78421761D01*
X111959142Y-78469380D01*
X111863904Y-78469380D01*
X111387714Y-78469380D02*
X111482952Y-78421761D01*
X111530571Y-78374142D01*
X111578190Y-78278904D01*
X111578190Y-77993190D01*
X111530571Y-77897952D01*
X111482952Y-77850333D01*
X111387714Y-77802714D01*
X111244857Y-77802714D01*
X111149619Y-77850333D01*
X111102000Y-77897952D01*
X111054380Y-77993190D01*
X111054380Y-78278904D01*
X111102000Y-78374142D01*
X111149619Y-78421761D01*
X111244857Y-78469380D01*
X111387714Y-78469380D01*
X110625809Y-77802714D02*
X110625809Y-78469380D01*
X110625809Y-77897952D02*
X110578190Y-77850333D01*
X110482952Y-77802714D01*
X110340095Y-77802714D01*
X110244857Y-77850333D01*
X110197238Y-77945571D01*
X110197238Y-78469380D01*
X123268666Y-80079380D02*
X123268666Y-79079380D01*
X123268666Y-79460333D02*
X123173428Y-79412714D01*
X122982952Y-79412714D01*
X122887714Y-79460333D01*
X122840095Y-79507952D01*
X122792476Y-79603190D01*
X122792476Y-79888904D01*
X122840095Y-79984142D01*
X122887714Y-80031761D01*
X122982952Y-80079380D01*
X123173428Y-80079380D01*
X123268666Y-80031761D01*
X122459142Y-79412714D02*
X122221047Y-80079380D01*
X121982952Y-79412714D02*
X122221047Y-80079380D01*
X122316285Y-80317476D01*
X122363904Y-80365095D01*
X122459142Y-80412714D01*
X120982952Y-79079380D02*
X120411523Y-79079380D01*
X120697238Y-80079380D02*
X120697238Y-79079380D01*
X120078190Y-80079380D02*
X120078190Y-79412714D01*
X120078190Y-79079380D02*
X120125809Y-79127000D01*
X120078190Y-79174619D01*
X120030571Y-79127000D01*
X120078190Y-79079380D01*
X120078190Y-79174619D01*
X119649619Y-80031761D02*
X119554380Y-80079380D01*
X119363904Y-80079380D01*
X119268666Y-80031761D01*
X119221047Y-79936523D01*
X119221047Y-79888904D01*
X119268666Y-79793666D01*
X119363904Y-79746047D01*
X119506761Y-79746047D01*
X119602000Y-79698428D01*
X119649619Y-79603190D01*
X119649619Y-79555571D01*
X119602000Y-79460333D01*
X119506761Y-79412714D01*
X119363904Y-79412714D01*
X119268666Y-79460333D01*
X118792476Y-80079380D02*
X118792476Y-79079380D01*
X118363904Y-80079380D02*
X118363904Y-79555571D01*
X118411523Y-79460333D01*
X118506761Y-79412714D01*
X118649619Y-79412714D01*
X118744857Y-79460333D01*
X118792476Y-79507952D01*
X117459142Y-80079380D02*
X117459142Y-79555571D01*
X117506761Y-79460333D01*
X117602000Y-79412714D01*
X117792476Y-79412714D01*
X117887714Y-79460333D01*
X117459142Y-80031761D02*
X117554380Y-80079380D01*
X117792476Y-80079380D01*
X117887714Y-80031761D01*
X117935333Y-79936523D01*
X117935333Y-79841285D01*
X117887714Y-79746047D01*
X117792476Y-79698428D01*
X117554380Y-79698428D01*
X117459142Y-79650809D01*
X116982952Y-80079380D02*
X116982952Y-79412714D01*
X116982952Y-79507952D02*
X116935333Y-79460333D01*
X116840095Y-79412714D01*
X116697238Y-79412714D01*
X116602000Y-79460333D01*
X116554380Y-79555571D01*
X116554380Y-80079380D01*
X116554380Y-79555571D02*
X116506761Y-79460333D01*
X116411523Y-79412714D01*
X116268666Y-79412714D01*
X116173428Y-79460333D01*
X116125809Y-79555571D01*
X116125809Y-80079380D01*
X114887714Y-80079380D02*
X114887714Y-79079380D01*
X114649619Y-79079380D01*
X114506761Y-79127000D01*
X114411523Y-79222238D01*
X114363904Y-79317476D01*
X114316285Y-79507952D01*
X114316285Y-79650809D01*
X114363904Y-79841285D01*
X114411523Y-79936523D01*
X114506761Y-80031761D01*
X114649619Y-80079380D01*
X114887714Y-80079380D01*
X113887714Y-80079380D02*
X113887714Y-79079380D01*
X113459142Y-80079380D02*
X113459142Y-79555571D01*
X113506761Y-79460333D01*
X113602000Y-79412714D01*
X113744857Y-79412714D01*
X113840095Y-79460333D01*
X113887714Y-79507952D01*
X112554380Y-80079380D02*
X112554380Y-79555571D01*
X112602000Y-79460333D01*
X112697238Y-79412714D01*
X112887714Y-79412714D01*
X112982952Y-79460333D01*
X112554380Y-80031761D02*
X112649619Y-80079380D01*
X112887714Y-80079380D01*
X112982952Y-80031761D01*
X113030571Y-79936523D01*
X113030571Y-79841285D01*
X112982952Y-79746047D01*
X112887714Y-79698428D01*
X112649619Y-79698428D01*
X112554380Y-79650809D01*
X112078190Y-80079380D02*
X112078190Y-79412714D01*
X112078190Y-79603190D02*
X112030571Y-79507952D01*
X111982952Y-79460333D01*
X111887714Y-79412714D01*
X111792476Y-79412714D01*
X129935333Y-81689380D02*
X129935333Y-80689380D01*
X129697238Y-80689380D01*
X129554380Y-80737000D01*
X129459142Y-80832238D01*
X129411523Y-80927476D01*
X129363904Y-81117952D01*
X129363904Y-81260809D01*
X129411523Y-81451285D01*
X129459142Y-81546523D01*
X129554380Y-81641761D01*
X129697238Y-81689380D01*
X129935333Y-81689380D01*
X128554380Y-81641761D02*
X128649619Y-81689380D01*
X128840095Y-81689380D01*
X128935333Y-81641761D01*
X128982952Y-81546523D01*
X128982952Y-81165571D01*
X128935333Y-81070333D01*
X128840095Y-81022714D01*
X128649619Y-81022714D01*
X128554380Y-81070333D01*
X128506761Y-81165571D01*
X128506761Y-81260809D01*
X128982952Y-81356047D01*
X128078190Y-81689380D02*
X128078190Y-81022714D01*
X128078190Y-81213190D02*
X128030571Y-81117952D01*
X127982952Y-81070333D01*
X127887714Y-81022714D01*
X127792476Y-81022714D01*
X127459142Y-81689380D02*
X127459142Y-81022714D01*
X127459142Y-80689380D02*
X127506761Y-80737000D01*
X127459142Y-80784619D01*
X127411523Y-80737000D01*
X127459142Y-80689380D01*
X127459142Y-80784619D01*
X127078190Y-81022714D02*
X126840095Y-81689380D01*
X126602000Y-81022714D01*
X125840095Y-81641761D02*
X125935333Y-81689380D01*
X126125809Y-81689380D01*
X126221047Y-81641761D01*
X126268666Y-81546523D01*
X126268666Y-81165571D01*
X126221047Y-81070333D01*
X126125809Y-81022714D01*
X125935333Y-81022714D01*
X125840095Y-81070333D01*
X125792476Y-81165571D01*
X125792476Y-81260809D01*
X126268666Y-81356047D01*
X124935333Y-81689380D02*
X124935333Y-80689380D01*
X124935333Y-81641761D02*
X125030571Y-81689380D01*
X125221047Y-81689380D01*
X125316285Y-81641761D01*
X125363904Y-81594142D01*
X125411523Y-81498904D01*
X125411523Y-81213190D01*
X125363904Y-81117952D01*
X125316285Y-81070333D01*
X125221047Y-81022714D01*
X125030571Y-81022714D01*
X124935333Y-81070333D01*
X123840095Y-81022714D02*
X123459142Y-81022714D01*
X123697238Y-81689380D02*
X123697238Y-80832238D01*
X123649619Y-80737000D01*
X123554380Y-80689380D01*
X123459142Y-80689380D01*
X123125809Y-81689380D02*
X123125809Y-81022714D01*
X123125809Y-81213190D02*
X123078190Y-81117952D01*
X123030571Y-81070333D01*
X122935333Y-81022714D01*
X122840095Y-81022714D01*
X122363904Y-81689380D02*
X122459142Y-81641761D01*
X122506761Y-81594142D01*
X122554380Y-81498904D01*
X122554380Y-81213190D01*
X122506761Y-81117952D01*
X122459142Y-81070333D01*
X122363904Y-81022714D01*
X122221047Y-81022714D01*
X122125809Y-81070333D01*
X122078190Y-81117952D01*
X122030571Y-81213190D01*
X122030571Y-81498904D01*
X122078190Y-81594142D01*
X122125809Y-81641761D01*
X122221047Y-81689380D01*
X122363904Y-81689380D01*
X121602000Y-81689380D02*
X121602000Y-81022714D01*
X121602000Y-81117952D02*
X121554380Y-81070333D01*
X121459142Y-81022714D01*
X121316285Y-81022714D01*
X121221047Y-81070333D01*
X121173428Y-81165571D01*
X121173428Y-81689380D01*
X121173428Y-81165571D02*
X121125809Y-81070333D01*
X121030571Y-81022714D01*
X120887714Y-81022714D01*
X120792476Y-81070333D01*
X120744857Y-81165571D01*
X120744857Y-81689380D01*
X119602000Y-81022714D02*
X119411523Y-81689380D01*
X119221047Y-81213190D01*
X119030571Y-81689380D01*
X118840095Y-81022714D01*
X118316285Y-81689380D02*
X118411523Y-81641761D01*
X118459142Y-81594142D01*
X118506761Y-81498904D01*
X118506761Y-81213190D01*
X118459142Y-81117952D01*
X118411523Y-81070333D01*
X118316285Y-81022714D01*
X118173428Y-81022714D01*
X118078190Y-81070333D01*
X118030571Y-81117952D01*
X117982952Y-81213190D01*
X117982952Y-81498904D01*
X118030571Y-81594142D01*
X118078190Y-81641761D01*
X118173428Y-81689380D01*
X118316285Y-81689380D01*
X117554380Y-81689380D02*
X117554380Y-81022714D01*
X117554380Y-81213190D02*
X117506761Y-81117952D01*
X117459142Y-81070333D01*
X117363904Y-81022714D01*
X117268666Y-81022714D01*
X116935333Y-81689380D02*
X116935333Y-80689380D01*
X116840095Y-81308428D02*
X116554380Y-81689380D01*
X116554380Y-81022714D02*
X116935333Y-81403666D01*
X115363904Y-81689380D02*
X115363904Y-80689380D01*
X115363904Y-81070333D02*
X115268666Y-81022714D01*
X115078190Y-81022714D01*
X114982952Y-81070333D01*
X114935333Y-81117952D01*
X114887714Y-81213190D01*
X114887714Y-81498904D01*
X114935333Y-81594142D01*
X114982952Y-81641761D01*
X115078190Y-81689380D01*
X115268666Y-81689380D01*
X115363904Y-81641761D01*
X114554380Y-81022714D02*
X114316285Y-81689380D01*
X114078190Y-81022714D02*
X114316285Y-81689380D01*
X114411523Y-81927476D01*
X114459142Y-81975095D01*
X114554380Y-82022714D01*
X112316285Y-81213190D02*
X112363904Y-81165571D01*
X112459142Y-81117952D01*
X112554380Y-81117952D01*
X112649619Y-81165571D01*
X112697238Y-81213190D01*
X112744857Y-81308428D01*
X112744857Y-81403666D01*
X112697238Y-81498904D01*
X112649619Y-81546523D01*
X112554380Y-81594142D01*
X112459142Y-81594142D01*
X112363904Y-81546523D01*
X112316285Y-81498904D01*
X112316285Y-81117952D02*
X112316285Y-81498904D01*
X112268666Y-81546523D01*
X112221047Y-81546523D01*
X112125809Y-81498904D01*
X112078190Y-81403666D01*
X112078190Y-81165571D01*
X112173428Y-81022714D01*
X112316285Y-80927476D01*
X112506761Y-80879857D01*
X112697238Y-80927476D01*
X112840095Y-81022714D01*
X112935333Y-81165571D01*
X112982952Y-81356047D01*
X112935333Y-81546523D01*
X112840095Y-81689380D01*
X112697238Y-81784619D01*
X112506761Y-81832238D01*
X112316285Y-81784619D01*
X112173428Y-81689380D01*
X111649619Y-81689380D02*
X111649619Y-80689380D01*
X111649619Y-81070333D02*
X111554380Y-81022714D01*
X111363904Y-81022714D01*
X111268666Y-81070333D01*
X111221047Y-81117952D01*
X111173428Y-81213190D01*
X111173428Y-81498904D01*
X111221047Y-81594142D01*
X111268666Y-81641761D01*
X111363904Y-81689380D01*
X111554380Y-81689380D01*
X111649619Y-81641761D01*
X110744857Y-81689380D02*
X110744857Y-81022714D01*
X110744857Y-80689380D02*
X110792476Y-80737000D01*
X110744857Y-80784619D01*
X110697238Y-80737000D01*
X110744857Y-80689380D01*
X110744857Y-80784619D01*
X110268666Y-81689380D02*
X110268666Y-80689380D01*
X110173428Y-81308428D02*
X109887714Y-81689380D01*
X109887714Y-81022714D02*
X110268666Y-81403666D01*
X109078190Y-81641761D02*
X109173428Y-81689380D01*
X109363904Y-81689380D01*
X109459142Y-81641761D01*
X109506761Y-81546523D01*
X109506761Y-81165571D01*
X109459142Y-81070333D01*
X109363904Y-81022714D01*
X109173428Y-81022714D01*
X109078190Y-81070333D01*
X109030571Y-81165571D01*
X109030571Y-81260809D01*
X109506761Y-81356047D01*
X108602000Y-81689380D02*
X108602000Y-81022714D01*
X108602000Y-81213190D02*
X108554380Y-81117952D01*
X108506761Y-81070333D01*
X108411523Y-81022714D01*
X108316285Y-81022714D01*
X107554380Y-81022714D02*
X107554380Y-81832238D01*
X107602000Y-81927476D01*
X107649619Y-81975095D01*
X107744857Y-82022714D01*
X107887714Y-82022714D01*
X107982952Y-81975095D01*
X107554380Y-81641761D02*
X107649619Y-81689380D01*
X107840095Y-81689380D01*
X107935333Y-81641761D01*
X107982952Y-81594142D01*
X108030571Y-81498904D01*
X108030571Y-81213190D01*
X107982952Y-81117952D01*
X107935333Y-81070333D01*
X107840095Y-81022714D01*
X107649619Y-81022714D01*
X107554380Y-81070333D01*
X106935333Y-81689380D02*
X107030571Y-81641761D01*
X107078190Y-81546523D01*
X107078190Y-80689380D01*
X106173428Y-81641761D02*
X106268666Y-81689380D01*
X106459142Y-81689380D01*
X106554380Y-81641761D01*
X106602000Y-81546523D01*
X106602000Y-81165571D01*
X106554380Y-81070333D01*
X106459142Y-81022714D01*
X106268666Y-81022714D01*
X106173428Y-81070333D01*
X106125809Y-81165571D01*
X106125809Y-81260809D01*
X106602000Y-81356047D01*
X105697238Y-81022714D02*
X105697238Y-81689380D01*
X105697238Y-81117952D02*
X105649619Y-81070333D01*
X105554380Y-81022714D01*
X105411523Y-81022714D01*
X105316285Y-81070333D01*
X105268666Y-81165571D01*
X105268666Y-81689380D01*
X124268666Y-82632714D02*
X124030571Y-83299380D01*
X123792476Y-82632714D01*
X123221047Y-82299380D02*
X123125809Y-82299380D01*
X123030571Y-82347000D01*
X122982952Y-82394619D01*
X122935333Y-82489857D01*
X122887714Y-82680333D01*
X122887714Y-82918428D01*
X122935333Y-83108904D01*
X122982952Y-83204142D01*
X123030571Y-83251761D01*
X123125809Y-83299380D01*
X123221047Y-83299380D01*
X123316285Y-83251761D01*
X123363904Y-83204142D01*
X123411523Y-83108904D01*
X123459142Y-82918428D01*
X123459142Y-82680333D01*
X123411523Y-82489857D01*
X123363904Y-82394619D01*
X123316285Y-82347000D01*
X123221047Y-82299380D01*
X122459142Y-83204142D02*
X122411523Y-83251761D01*
X122459142Y-83299380D01*
X122506761Y-83251761D01*
X122459142Y-83204142D01*
X122459142Y-83299380D01*
X121459142Y-83299380D02*
X122030571Y-83299380D01*
X121744857Y-83299380D02*
X121744857Y-82299380D01*
X121840095Y-82442238D01*
X121935333Y-82537476D01*
X122030571Y-82585095D01*
X120316285Y-82394619D02*
X120268666Y-82347000D01*
X120173428Y-82299380D01*
X119935333Y-82299380D01*
X119840095Y-82347000D01*
X119792476Y-82394619D01*
X119744857Y-82489857D01*
X119744857Y-82585095D01*
X119792476Y-82727952D01*
X120363904Y-83299380D01*
X119744857Y-83299380D01*
X119268666Y-83299380D02*
X119078190Y-83299380D01*
X118982952Y-83251761D01*
X118935333Y-83204142D01*
X118840095Y-83061285D01*
X118792476Y-82870809D01*
X118792476Y-82489857D01*
X118840095Y-82394619D01*
X118887714Y-82347000D01*
X118982952Y-82299380D01*
X119173428Y-82299380D01*
X119268666Y-82347000D01*
X119316285Y-82394619D01*
X119363904Y-82489857D01*
X119363904Y-82727952D01*
X119316285Y-82823190D01*
X119268666Y-82870809D01*
X119173428Y-82918428D01*
X118982952Y-82918428D01*
X118887714Y-82870809D01*
X118840095Y-82823190D01*
X118792476Y-82727952D01*
X117649619Y-82251761D02*
X118506761Y-83537476D01*
X116792476Y-83299380D02*
X117363904Y-83299380D01*
X117078190Y-83299380D02*
X117078190Y-82299380D01*
X117173428Y-82442238D01*
X117268666Y-82537476D01*
X117363904Y-82585095D01*
X115840095Y-83299380D02*
X116411523Y-83299380D01*
X116125809Y-83299380D02*
X116125809Y-82299380D01*
X116221047Y-82442238D01*
X116316285Y-82537476D01*
X116411523Y-82585095D01*
X114697238Y-82251761D02*
X115554380Y-83537476D01*
X114411523Y-82394619D02*
X114363904Y-82347000D01*
X114268666Y-82299380D01*
X114030571Y-82299380D01*
X113935333Y-82347000D01*
X113887714Y-82394619D01*
X113840095Y-82489857D01*
X113840095Y-82585095D01*
X113887714Y-82727952D01*
X114459142Y-83299380D01*
X113840095Y-83299380D01*
X113221047Y-82299380D02*
X113125809Y-82299380D01*
X113030571Y-82347000D01*
X112982952Y-82394619D01*
X112935333Y-82489857D01*
X112887714Y-82680333D01*
X112887714Y-82918428D01*
X112935333Y-83108904D01*
X112982952Y-83204142D01*
X113030571Y-83251761D01*
X113125809Y-83299380D01*
X113221047Y-83299380D01*
X113316285Y-83251761D01*
X113363904Y-83204142D01*
X113411523Y-83108904D01*
X113459142Y-82918428D01*
X113459142Y-82680333D01*
X113411523Y-82489857D01*
X113363904Y-82394619D01*
X113316285Y-82347000D01*
X113221047Y-82299380D01*
X112506761Y-82394619D02*
X112459142Y-82347000D01*
X112363904Y-82299380D01*
X112125809Y-82299380D01*
X112030571Y-82347000D01*
X111982952Y-82394619D01*
X111935333Y-82489857D01*
X111935333Y-82585095D01*
X111982952Y-82727952D01*
X112554380Y-83299380D01*
X111935333Y-83299380D01*
X111316285Y-82299380D02*
X111221047Y-82299380D01*
X111125809Y-82347000D01*
X111078190Y-82394619D01*
X111030571Y-82489857D01*
X110982952Y-82680333D01*
X110982952Y-82918428D01*
X111030571Y-83108904D01*
X111078190Y-83204142D01*
X111125809Y-83251761D01*
X111221047Y-83299380D01*
X111316285Y-83299380D01*
X111411523Y-83251761D01*
X111459142Y-83204142D01*
X111506761Y-83108904D01*
X111554380Y-82918428D01*
X111554380Y-82680333D01*
X111506761Y-82489857D01*
X111459142Y-82394619D01*
X111411523Y-82347000D01*
X111316285Y-82299380D01*
X125149619Y-84909380D02*
X125149619Y-83909380D01*
X124721047Y-84909380D02*
X124721047Y-84385571D01*
X124768666Y-84290333D01*
X124863904Y-84242714D01*
X125006761Y-84242714D01*
X125102000Y-84290333D01*
X125149619Y-84337952D01*
X124387714Y-84242714D02*
X124006761Y-84242714D01*
X124244857Y-83909380D02*
X124244857Y-84766523D01*
X124197238Y-84861761D01*
X124102000Y-84909380D01*
X124006761Y-84909380D01*
X123816285Y-84242714D02*
X123435333Y-84242714D01*
X123673428Y-83909380D02*
X123673428Y-84766523D01*
X123625809Y-84861761D01*
X123530571Y-84909380D01*
X123435333Y-84909380D01*
X123102000Y-84242714D02*
X123102000Y-85242714D01*
X123102000Y-84290333D02*
X123006761Y-84242714D01*
X122816285Y-84242714D01*
X122721047Y-84290333D01*
X122673428Y-84337952D01*
X122625809Y-84433190D01*
X122625809Y-84718904D01*
X122673428Y-84814142D01*
X122721047Y-84861761D01*
X122816285Y-84909380D01*
X123006761Y-84909380D01*
X123102000Y-84861761D01*
X122197238Y-84814142D02*
X122149619Y-84861761D01*
X122197238Y-84909380D01*
X122244857Y-84861761D01*
X122197238Y-84814142D01*
X122197238Y-84909380D01*
X122197238Y-84290333D02*
X122149619Y-84337952D01*
X122197238Y-84385571D01*
X122244857Y-84337952D01*
X122197238Y-84290333D01*
X122197238Y-84385571D01*
X121006761Y-83861761D02*
X121863904Y-85147476D01*
X119959142Y-83861761D02*
X120816285Y-85147476D01*
X119721047Y-84242714D02*
X119530571Y-84909380D01*
X119340095Y-84433190D01*
X119149619Y-84909380D01*
X118959142Y-84242714D01*
X118578190Y-84909380D02*
X118578190Y-83909380D01*
X118149619Y-84909380D02*
X118149619Y-84385571D01*
X118197238Y-84290333D01*
X118292476Y-84242714D01*
X118435333Y-84242714D01*
X118530571Y-84290333D01*
X118578190Y-84337952D01*
X117244857Y-84909380D02*
X117244857Y-84385571D01*
X117292476Y-84290333D01*
X117387714Y-84242714D01*
X117578190Y-84242714D01*
X117673428Y-84290333D01*
X117244857Y-84861761D02*
X117340095Y-84909380D01*
X117578190Y-84909380D01*
X117673428Y-84861761D01*
X117721047Y-84766523D01*
X117721047Y-84671285D01*
X117673428Y-84576047D01*
X117578190Y-84528428D01*
X117340095Y-84528428D01*
X117244857Y-84480809D01*
X116911523Y-84242714D02*
X116530571Y-84242714D01*
X116768666Y-83909380D02*
X116768666Y-84766523D01*
X116721047Y-84861761D01*
X116625809Y-84909380D01*
X116530571Y-84909380D01*
X116197238Y-84242714D02*
X116197238Y-84909380D01*
X116197238Y-84337952D02*
X116149619Y-84290333D01*
X116054380Y-84242714D01*
X115911523Y-84242714D01*
X115816285Y-84290333D01*
X115768666Y-84385571D01*
X115768666Y-84909380D01*
X115292476Y-84909380D02*
X115292476Y-84242714D01*
X115292476Y-83909380D02*
X115340095Y-83957000D01*
X115292476Y-84004619D01*
X115244857Y-83957000D01*
X115292476Y-83909380D01*
X115292476Y-84004619D01*
X114387714Y-84861761D02*
X114482952Y-84909380D01*
X114673428Y-84909380D01*
X114768666Y-84861761D01*
X114816285Y-84814142D01*
X114863904Y-84718904D01*
X114863904Y-84433190D01*
X114816285Y-84337952D01*
X114768666Y-84290333D01*
X114673428Y-84242714D01*
X114482952Y-84242714D01*
X114387714Y-84290333D01*
X113959142Y-84909380D02*
X113959142Y-83909380D01*
X113863904Y-84528428D02*
X113578190Y-84909380D01*
X113578190Y-84242714D02*
X113959142Y-84623666D01*
X113149619Y-84814142D02*
X113102000Y-84861761D01*
X113149619Y-84909380D01*
X113197238Y-84861761D01*
X113149619Y-84814142D01*
X113149619Y-84909380D01*
X112244857Y-84861761D02*
X112340095Y-84909380D01*
X112530571Y-84909380D01*
X112625809Y-84861761D01*
X112673428Y-84814142D01*
X112721047Y-84718904D01*
X112721047Y-84433190D01*
X112673428Y-84337952D01*
X112625809Y-84290333D01*
X112530571Y-84242714D01*
X112340095Y-84242714D01*
X112244857Y-84290333D01*
X111673428Y-84909380D02*
X111768666Y-84861761D01*
X111816285Y-84814142D01*
X111863904Y-84718904D01*
X111863904Y-84433190D01*
X111816285Y-84337952D01*
X111768666Y-84290333D01*
X111673428Y-84242714D01*
X111530571Y-84242714D01*
X111435333Y-84290333D01*
X111387714Y-84337952D01*
X111340095Y-84433190D01*
X111340095Y-84718904D01*
X111387714Y-84814142D01*
X111435333Y-84861761D01*
X111530571Y-84909380D01*
X111673428Y-84909380D01*
X110911523Y-84909380D02*
X110911523Y-84242714D01*
X110911523Y-84337952D02*
X110863904Y-84290333D01*
X110768666Y-84242714D01*
X110625809Y-84242714D01*
X110530571Y-84290333D01*
X110482952Y-84385571D01*
X110482952Y-84909380D01*
X110482952Y-84385571D02*
X110435333Y-84290333D01*
X110340095Y-84242714D01*
X110197238Y-84242714D01*
X110102000Y-84290333D01*
X110054380Y-84385571D01*
X110054380Y-84909380D01*
X121459142Y-85519380D02*
X121268666Y-85519380D01*
X121173428Y-85567000D01*
X121078190Y-85662238D01*
X121030571Y-85852714D01*
X121030571Y-86186047D01*
X121078190Y-86376523D01*
X121173428Y-86471761D01*
X121268666Y-86519380D01*
X121459142Y-86519380D01*
X121554380Y-86471761D01*
X121649619Y-86376523D01*
X121697238Y-86186047D01*
X121697238Y-85852714D01*
X121649619Y-85662238D01*
X121554380Y-85567000D01*
X121459142Y-85519380D01*
X120649619Y-86471761D02*
X120506761Y-86519380D01*
X120268666Y-86519380D01*
X120173428Y-86471761D01*
X120125809Y-86424142D01*
X120078190Y-86328904D01*
X120078190Y-86233666D01*
X120125809Y-86138428D01*
X120173428Y-86090809D01*
X120268666Y-86043190D01*
X120459142Y-85995571D01*
X120554380Y-85947952D01*
X120602000Y-85900333D01*
X120649619Y-85805095D01*
X120649619Y-85709857D01*
X120602000Y-85614619D01*
X120554380Y-85567000D01*
X120459142Y-85519380D01*
X120221047Y-85519380D01*
X120078190Y-85567000D01*
X119649619Y-86519380D02*
X119649619Y-85519380D01*
X119649619Y-85995571D02*
X119078190Y-85995571D01*
X119078190Y-86519380D02*
X119078190Y-85519380D01*
X118697238Y-85519380D02*
X118459142Y-86519380D01*
X118268666Y-85805095D01*
X118078190Y-86519380D01*
X117840095Y-85519380D01*
X116840095Y-85519380D02*
X116268666Y-85519380D01*
X116554380Y-86519380D02*
X116554380Y-85519380D01*
X115982952Y-86233666D02*
X115506761Y-86233666D01*
X116078190Y-86519380D02*
X115744857Y-85519380D01*
X115411523Y-86519380D01*
X115078190Y-86519380D02*
X115078190Y-85519380D01*
X114697238Y-85519380D01*
X114602000Y-85567000D01*
X114554380Y-85614619D01*
X114506761Y-85709857D01*
X114506761Y-85852714D01*
X114554380Y-85947952D01*
X114602000Y-85995571D01*
X114697238Y-86043190D01*
X115078190Y-86043190D01*
X113506761Y-86519380D02*
X113840095Y-86043190D01*
X114078190Y-86519380D02*
X114078190Y-85519380D01*
X113697238Y-85519380D01*
X113602000Y-85567000D01*
X113554380Y-85614619D01*
X113506761Y-85709857D01*
X113506761Y-85852714D01*
X113554380Y-85947952D01*
X113602000Y-85995571D01*
X113697238Y-86043190D01*
X114078190Y-86043190D01*
M02*
