%TF.GenerationSoftware,KiCad,Pcbnew,(5.99.0-6951-g72beaf1538)*%
%TF.CreationDate,2020-11-29T14:33:23+11:00*%
%TF.ProjectId,contact-block-v4,636f6e74-6163-4742-9d62-6c6f636b2d76,rev?*%
%TF.SameCoordinates,Original*%
%TF.FileFunction,Soldermask,Top*%
%TF.FilePolarity,Negative*%
%FSLAX46Y46*%
G04 Gerber Fmt 4.6, Leading zero omitted, Abs format (unit mm)*
G04 Created by KiCad (PCBNEW (5.99.0-6951-g72beaf1538)) date 2020-11-29 14:33:23*
%MOMM*%
%LPD*%
G01*
G04 APERTURE LIST*
G04 Aperture macros list*
%AMRoundRect*
0 Rectangle with rounded corners*
0 $1 Rounding radius*
0 $2 $3 $4 $5 $6 $7 $8 $9 X,Y pos of 4 corners*
0 Add a 4 corners polygon primitive as box body*
4,1,4,$2,$3,$4,$5,$6,$7,$8,$9,$2,$3,0*
0 Add four circle primitives for the rounded corners*
1,1,$1+$1,$2,$3,0*
1,1,$1+$1,$4,$5,0*
1,1,$1+$1,$6,$7,0*
1,1,$1+$1,$8,$9,0*
0 Add four rect primitives between the rounded corners*
20,1,$1+$1,$2,$3,$4,$5,0*
20,1,$1+$1,$4,$5,$6,$7,0*
20,1,$1+$1,$6,$7,$8,$9,0*
20,1,$1+$1,$8,$9,$2,$3,0*%
G04 Aperture macros list end*
%ADD10R,1.350000X0.400000*%
%ADD11C,0.700000*%
%ADD12R,1.900000X1.800000*%
%ADD13R,1.900000X1.900000*%
%ADD14R,1.700000X1.700000*%
%ADD15O,1.700000X1.700000*%
%ADD16RoundRect,0.250000X-0.625000X0.375000X-0.625000X-0.375000X0.625000X-0.375000X0.625000X0.375000X0*%
%ADD17R,0.900000X0.800000*%
%ADD18RoundRect,0.125000X0.825000X0.125000X-0.825000X0.125000X-0.825000X-0.125000X0.825000X-0.125000X0*%
%ADD19RoundRect,0.250000X0.625000X-0.375000X0.625000X0.375000X-0.625000X0.375000X-0.625000X-0.375000X0*%
%ADD20R,2.600000X1.500000*%
%ADD21RoundRect,0.250000X-0.375000X-1.075000X0.375000X-1.075000X0.375000X1.075000X-0.375000X1.075000X0*%
G04 APERTURE END LIST*
D10*
%TO.C,J1*%
X100338000Y-85441000D03*
X100338000Y-86091000D03*
X100338000Y-86741000D03*
X100338000Y-87391000D03*
X100338000Y-88041000D03*
D11*
X100113000Y-84666000D03*
X100113000Y-88816000D03*
D12*
X97663000Y-82741000D03*
D13*
X97663000Y-85541000D03*
X97663000Y-87941000D03*
D12*
X97663000Y-90741000D03*
%TD*%
D14*
%TO.C,J3*%
X129159000Y-83820000D03*
D15*
X129159000Y-86360000D03*
%TD*%
D16*
%TO.C,R1*%
X123825000Y-85341000D03*
X123825000Y-88141000D03*
%TD*%
D17*
%TO.C,D2*%
X104886000Y-87564000D03*
X104886000Y-85664000D03*
X102886000Y-86614000D03*
%TD*%
D18*
%TO.C,U1*%
X116784000Y-87634000D03*
X116784000Y-86984000D03*
X116784000Y-86334000D03*
X116784000Y-85684000D03*
X116784000Y-85034000D03*
X116784000Y-84384000D03*
X116784000Y-83734000D03*
X116784000Y-83084000D03*
X116784000Y-82434000D03*
X116784000Y-81784000D03*
X109784000Y-81784000D03*
X109784000Y-82434000D03*
X109784000Y-83084000D03*
X109784000Y-83734000D03*
X109784000Y-84384000D03*
X109784000Y-85034000D03*
X109784000Y-85684000D03*
X109784000Y-86334000D03*
X109784000Y-86984000D03*
X109784000Y-87634000D03*
%TD*%
D19*
%TO.C,C2*%
X119507000Y-88011000D03*
X119507000Y-85211000D03*
%TD*%
D20*
%TO.C,D1*%
X123825000Y-82399000D03*
X123825000Y-79399000D03*
%TD*%
D16*
%TO.C,C1*%
X107315000Y-84833000D03*
X107315000Y-87633000D03*
%TD*%
D14*
%TO.C,J2*%
X123952000Y-75692000D03*
D15*
X121412000Y-75692000D03*
X118872000Y-75692000D03*
X116332000Y-75692000D03*
X113792000Y-75692000D03*
X111252000Y-75692000D03*
%TD*%
D21*
%TO.C,C3*%
X103502000Y-81915000D03*
X106302000Y-81915000D03*
%TD*%
M02*
