%TF.GenerationSoftware,KiCad,Pcbnew,(5.99.0-6951-g72beaf1538)*%
%TF.CreationDate,2020-11-29T14:33:23+11:00*%
%TF.ProjectId,contact-block-v4,636f6e74-6163-4742-9d62-6c6f636b2d76,rev?*%
%TF.SameCoordinates,Original*%
%TF.FileFunction,Copper,L2,Bot*%
%TF.FilePolarity,Positive*%
%FSLAX46Y46*%
G04 Gerber Fmt 4.6, Leading zero omitted, Abs format (unit mm)*
G04 Created by KiCad (PCBNEW (5.99.0-6951-g72beaf1538)) date 2020-11-29 14:33:23*
%MOMM*%
%LPD*%
G01*
G04 APERTURE LIST*
%TA.AperFunction,ComponentPad*%
%ADD10R,1.700000X1.700000*%
%TD*%
%TA.AperFunction,ComponentPad*%
%ADD11O,1.700000X1.700000*%
%TD*%
%TA.AperFunction,ViaPad*%
%ADD12C,0.800000*%
%TD*%
%TA.AperFunction,Conductor*%
%ADD13C,0.250000*%
%TD*%
G04 APERTURE END LIST*
D10*
%TO.P,J3,1,1*%
%TO.N,Net-(J3-Pad1)*%
X129159000Y-83820000D03*
D11*
%TO.P,J3,2,1*%
%TO.N,GND*%
X129159000Y-86360000D03*
%TD*%
D10*
%TO.P,J2,1,1*%
%TO.N,/{slash}MCLR*%
X123952000Y-75692000D03*
D11*
%TO.P,J2,2,2*%
%TO.N,+5V*%
X121412000Y-75692000D03*
%TO.P,J2,3,3*%
%TO.N,GND*%
X118872000Y-75692000D03*
%TO.P,J2,4,4*%
%TO.N,/PGD*%
X116332000Y-75692000D03*
%TO.P,J2,5,5*%
%TO.N,/PGC*%
X113792000Y-75692000D03*
%TO.P,J2,6,6*%
%TO.N,Net-(J2-Pad6)*%
X111252000Y-75692000D03*
%TD*%
D12*
%TO.N,/D+*%
X102133000Y-87561200D03*
X111350600Y-86984000D03*
%TD*%
D13*
%TO.N,GND*%
X118872000Y-75692000D02*
X118872000Y-76867300D01*
X127983700Y-85979000D02*
X127983700Y-86360000D01*
X118872000Y-76867300D02*
X127983700Y-85979000D01*
X129159000Y-86360000D02*
X127983700Y-86360000D01*
%TO.N,/D+*%
X102710200Y-86984000D02*
X111350600Y-86984000D01*
X102133000Y-87561200D02*
X102710200Y-86984000D01*
%TD*%
%TA.AperFunction,Conductor*%
%TO.N,GND*%
G36*
X130807181Y-73299002D02*
G01*
X130841347Y-73331425D01*
X133520067Y-77055500D01*
X135629606Y-79988273D01*
X135739287Y-80140757D01*
X135763000Y-80214332D01*
X135763001Y-81815459D01*
X135762999Y-81816229D01*
X135762746Y-81857622D01*
X135765212Y-81866250D01*
X135765212Y-81866251D01*
X135770861Y-81886020D01*
X135774438Y-81902777D01*
X135778621Y-81931982D01*
X135786566Y-81949455D01*
X135789224Y-81955301D01*
X135795672Y-81972827D01*
X135802716Y-81997474D01*
X135807505Y-82005064D01*
X135818470Y-82022442D01*
X135826608Y-82037525D01*
X135835104Y-82056212D01*
X135835108Y-82056218D01*
X135838823Y-82064389D01*
X135844685Y-82071192D01*
X135855543Y-82083793D01*
X135866653Y-82098807D01*
X135880331Y-82120486D01*
X135887056Y-82126425D01*
X135887061Y-82126431D01*
X135902455Y-82140025D01*
X135914501Y-82152218D01*
X135933767Y-82174578D01*
X135941295Y-82179457D01*
X135941298Y-82179460D01*
X135955270Y-82188516D01*
X135970144Y-82199806D01*
X135989351Y-82216769D01*
X135997474Y-82220583D01*
X135997479Y-82220586D01*
X136016071Y-82229315D01*
X136031052Y-82237636D01*
X136048286Y-82248806D01*
X136048289Y-82248807D01*
X136055822Y-82253690D01*
X136064423Y-82256262D01*
X136064425Y-82256263D01*
X136080374Y-82261033D01*
X136097820Y-82267695D01*
X136108395Y-82272659D01*
X136121013Y-82278584D01*
X136129878Y-82279964D01*
X136129880Y-82279965D01*
X136144444Y-82282232D01*
X136150186Y-82283126D01*
X136166889Y-82286906D01*
X136195175Y-82295365D01*
X136204152Y-82295420D01*
X136204153Y-82295420D01*
X136227998Y-82295566D01*
X136230838Y-82295684D01*
X136232865Y-82296000D01*
X136298623Y-82296000D01*
X136299393Y-82296002D01*
X136340622Y-82296254D01*
X136341454Y-82296016D01*
X136341692Y-82296000D01*
X138050000Y-82296000D01*
X138118121Y-82316002D01*
X138164614Y-82369658D01*
X138176000Y-82422000D01*
X138176001Y-87165374D01*
X138173994Y-87187770D01*
X138172077Y-87198384D01*
X138171312Y-87229933D01*
X138168894Y-87329647D01*
X138167142Y-87347745D01*
X138164838Y-87361277D01*
X138137200Y-87523555D01*
X138131886Y-87544106D01*
X138075438Y-87705030D01*
X138066753Y-87724391D01*
X137980293Y-87880401D01*
X137970363Y-87895615D01*
X137892834Y-87997494D01*
X137838524Y-88094987D01*
X137836533Y-88103735D01*
X137835415Y-88106652D01*
X137827521Y-88123434D01*
X136530549Y-90424000D01*
X136379582Y-90691784D01*
X136370674Y-90705368D01*
X136367825Y-90708584D01*
X136365197Y-90712680D01*
X136365196Y-90712682D01*
X136292881Y-90825414D01*
X136283419Y-90838288D01*
X136158104Y-90987901D01*
X136145345Y-91001058D01*
X136004135Y-91126911D01*
X135989601Y-91138079D01*
X135831623Y-91242116D01*
X135815623Y-91251056D01*
X135644232Y-91331069D01*
X135627105Y-91337594D01*
X135445906Y-91391900D01*
X135428013Y-91395871D01*
X135234914Y-91424185D01*
X135219000Y-91425496D01*
X135114831Y-91427444D01*
X135087986Y-91427946D01*
X135087985Y-91427946D01*
X135083499Y-91428030D01*
X135066030Y-91430866D01*
X135046162Y-91432494D01*
X132714319Y-91438393D01*
X132646148Y-91418563D01*
X132599519Y-91365025D01*
X132588000Y-91312393D01*
X132588000Y-89888378D01*
X132588002Y-89887608D01*
X132588037Y-89881940D01*
X132588254Y-89846378D01*
X132585788Y-89837749D01*
X132580141Y-89817987D01*
X132576564Y-89801230D01*
X132573653Y-89780903D01*
X132573652Y-89780900D01*
X132572380Y-89772018D01*
X132568665Y-89763848D01*
X132568664Y-89763844D01*
X132561776Y-89748695D01*
X132555327Y-89731167D01*
X132550752Y-89715158D01*
X132550749Y-89715151D01*
X132548284Y-89706526D01*
X132532528Y-89681555D01*
X132524395Y-89666481D01*
X132512178Y-89639611D01*
X132495450Y-89620197D01*
X132484346Y-89605190D01*
X132470669Y-89583514D01*
X132448544Y-89563974D01*
X132436500Y-89551781D01*
X132423095Y-89536223D01*
X132423091Y-89536220D01*
X132417234Y-89529422D01*
X132408936Y-89524043D01*
X132395729Y-89515483D01*
X132380855Y-89504193D01*
X132368378Y-89493174D01*
X132361649Y-89487231D01*
X132334923Y-89474683D01*
X132319952Y-89466367D01*
X132295179Y-89450310D01*
X132286575Y-89447737D01*
X132286573Y-89447736D01*
X132270623Y-89442966D01*
X132253178Y-89436304D01*
X132238113Y-89429231D01*
X132238111Y-89429231D01*
X132229987Y-89425416D01*
X132221123Y-89424036D01*
X132221114Y-89424033D01*
X132200820Y-89420873D01*
X132184109Y-89417092D01*
X132164428Y-89411207D01*
X132164425Y-89411207D01*
X132155826Y-89408635D01*
X132146854Y-89408580D01*
X132146853Y-89408580D01*
X132123002Y-89408434D01*
X132120162Y-89408316D01*
X132118135Y-89408000D01*
X132052378Y-89408000D01*
X132051608Y-89407998D01*
X132051069Y-89407995D01*
X132010379Y-89407746D01*
X132009547Y-89407984D01*
X132009309Y-89408000D01*
X126591377Y-89408000D01*
X126590607Y-89407998D01*
X126590358Y-89407996D01*
X126549378Y-89407746D01*
X126540750Y-89410212D01*
X126540749Y-89410212D01*
X126520987Y-89415859D01*
X126504230Y-89419436D01*
X126483903Y-89422347D01*
X126483900Y-89422348D01*
X126475018Y-89423620D01*
X126466848Y-89427335D01*
X126466844Y-89427336D01*
X126451695Y-89434224D01*
X126434167Y-89440673D01*
X126418158Y-89445248D01*
X126418151Y-89445251D01*
X126409526Y-89447716D01*
X126384555Y-89463472D01*
X126369481Y-89471605D01*
X126342611Y-89483822D01*
X126323197Y-89500550D01*
X126308190Y-89511654D01*
X126286514Y-89525331D01*
X126280572Y-89532059D01*
X126266977Y-89547453D01*
X126254781Y-89559500D01*
X126239223Y-89572905D01*
X126239220Y-89572909D01*
X126232422Y-89578766D01*
X126227542Y-89586295D01*
X126227541Y-89586296D01*
X126218483Y-89600271D01*
X126207193Y-89615145D01*
X126190231Y-89634351D01*
X126186418Y-89642474D01*
X126186416Y-89642476D01*
X126177689Y-89661065D01*
X126169364Y-89676053D01*
X126153310Y-89700821D01*
X126145964Y-89725384D01*
X126139306Y-89742820D01*
X126128416Y-89766014D01*
X126127035Y-89774882D01*
X126127035Y-89774883D01*
X126123876Y-89795174D01*
X126120095Y-89811886D01*
X126111635Y-89840174D01*
X126111580Y-89849150D01*
X126111580Y-89849151D01*
X126111434Y-89872999D01*
X126111316Y-89875839D01*
X126111000Y-89877866D01*
X126111000Y-89943617D01*
X126110998Y-89944387D01*
X126110746Y-89985622D01*
X126110984Y-89986454D01*
X126111000Y-89986692D01*
X126111001Y-90712682D01*
X126111001Y-91314000D01*
X126090999Y-91382121D01*
X126037343Y-91428614D01*
X125985001Y-91440000D01*
X108711000Y-91440000D01*
X108642879Y-91419998D01*
X108596386Y-91366342D01*
X108585000Y-91314000D01*
X108585000Y-89888378D01*
X108585002Y-89887608D01*
X108585037Y-89881940D01*
X108585254Y-89846378D01*
X108582788Y-89837749D01*
X108577141Y-89817987D01*
X108573564Y-89801230D01*
X108570653Y-89780903D01*
X108570652Y-89780900D01*
X108569380Y-89772018D01*
X108565665Y-89763848D01*
X108565664Y-89763844D01*
X108558776Y-89748695D01*
X108552327Y-89731167D01*
X108547752Y-89715158D01*
X108547749Y-89715151D01*
X108545284Y-89706526D01*
X108529528Y-89681555D01*
X108521395Y-89666481D01*
X108509178Y-89639611D01*
X108492450Y-89620197D01*
X108481346Y-89605190D01*
X108467669Y-89583514D01*
X108445544Y-89563974D01*
X108433500Y-89551781D01*
X108420095Y-89536223D01*
X108420091Y-89536220D01*
X108414234Y-89529422D01*
X108405936Y-89524043D01*
X108392729Y-89515483D01*
X108377855Y-89504193D01*
X108365378Y-89493174D01*
X108358649Y-89487231D01*
X108331923Y-89474683D01*
X108316952Y-89466367D01*
X108292179Y-89450310D01*
X108283575Y-89447737D01*
X108283573Y-89447736D01*
X108267623Y-89442966D01*
X108250178Y-89436304D01*
X108235113Y-89429231D01*
X108235111Y-89429231D01*
X108226987Y-89425416D01*
X108218123Y-89424036D01*
X108218114Y-89424033D01*
X108197820Y-89420873D01*
X108181109Y-89417092D01*
X108161428Y-89411207D01*
X108161425Y-89411207D01*
X108152826Y-89408635D01*
X108143854Y-89408580D01*
X108143853Y-89408580D01*
X108120002Y-89408434D01*
X108117162Y-89408316D01*
X108115135Y-89408000D01*
X108049378Y-89408000D01*
X108048608Y-89407998D01*
X108048069Y-89407995D01*
X108007379Y-89407746D01*
X108006547Y-89407984D01*
X108006309Y-89408000D01*
X102588377Y-89408000D01*
X102587607Y-89407998D01*
X102587358Y-89407996D01*
X102546378Y-89407746D01*
X102537750Y-89410212D01*
X102537749Y-89410212D01*
X102517987Y-89415859D01*
X102501230Y-89419436D01*
X102480903Y-89422347D01*
X102480900Y-89422348D01*
X102472018Y-89423620D01*
X102463848Y-89427335D01*
X102463844Y-89427336D01*
X102448695Y-89434224D01*
X102431167Y-89440673D01*
X102415158Y-89445248D01*
X102415151Y-89445251D01*
X102406526Y-89447716D01*
X102381555Y-89463472D01*
X102366481Y-89471605D01*
X102339611Y-89483822D01*
X102320197Y-89500550D01*
X102305190Y-89511654D01*
X102283514Y-89525331D01*
X102277572Y-89532059D01*
X102263977Y-89547453D01*
X102251781Y-89559500D01*
X102236223Y-89572905D01*
X102236220Y-89572909D01*
X102229422Y-89578766D01*
X102224542Y-89586295D01*
X102224541Y-89586296D01*
X102215483Y-89600271D01*
X102204193Y-89615145D01*
X102187231Y-89634351D01*
X102183418Y-89642474D01*
X102183416Y-89642476D01*
X102174689Y-89661065D01*
X102166364Y-89676053D01*
X102150310Y-89700821D01*
X102142964Y-89725384D01*
X102136306Y-89742820D01*
X102125416Y-89766014D01*
X102124035Y-89774882D01*
X102124035Y-89774883D01*
X102120876Y-89795174D01*
X102117095Y-89811886D01*
X102108635Y-89840174D01*
X102108580Y-89849150D01*
X102108580Y-89849151D01*
X102108434Y-89872999D01*
X102108316Y-89875839D01*
X102108000Y-89877866D01*
X102108000Y-89943617D01*
X102107998Y-89944387D01*
X102107746Y-89985622D01*
X102107984Y-89986454D01*
X102108000Y-89986692D01*
X102108001Y-90712682D01*
X102108001Y-91314000D01*
X102087999Y-91382121D01*
X102034343Y-91428614D01*
X101982001Y-91440000D01*
X96773000Y-91440000D01*
X96704879Y-91419998D01*
X96658386Y-91366342D01*
X96647000Y-91314000D01*
X96647000Y-88906260D01*
X99254230Y-88906260D01*
X99255673Y-88912933D01*
X99255673Y-88912935D01*
X99277473Y-89013759D01*
X99293646Y-89088563D01*
X99371288Y-89258149D01*
X99483536Y-89407106D01*
X99488715Y-89411545D01*
X99488716Y-89411546D01*
X99615883Y-89520542D01*
X99625151Y-89528486D01*
X99691342Y-89563977D01*
X99782970Y-89613107D01*
X99789527Y-89616623D01*
X99968995Y-89667408D01*
X99975801Y-89667812D01*
X99975805Y-89667813D01*
X100114514Y-89676053D01*
X100155182Y-89678469D01*
X100339400Y-89649292D01*
X100345746Y-89646805D01*
X100345750Y-89646804D01*
X100506701Y-89583728D01*
X100506705Y-89583726D01*
X100513056Y-89581237D01*
X100668047Y-89477479D01*
X100797142Y-89342860D01*
X100845525Y-89263597D01*
X100890762Y-89189486D01*
X100890763Y-89189485D01*
X100894318Y-89183660D01*
X100955041Y-89007307D01*
X100976479Y-88822028D01*
X100976500Y-88816000D01*
X100956357Y-88630576D01*
X100896866Y-88453803D01*
X100800804Y-88293929D01*
X100753538Y-88243946D01*
X100727213Y-88216109D01*
X100672652Y-88158412D01*
X100621184Y-88123434D01*
X100524032Y-88057410D01*
X100518389Y-88053575D01*
X100512059Y-88051043D01*
X100512055Y-88051041D01*
X100351549Y-87986843D01*
X100351544Y-87986842D01*
X100345212Y-87984309D01*
X100338485Y-87983195D01*
X100338480Y-87983194D01*
X100167939Y-87954961D01*
X100167936Y-87954961D01*
X100161202Y-87953846D01*
X100154386Y-87954203D01*
X100154381Y-87954203D01*
X100004586Y-87962054D01*
X99974943Y-87963608D01*
X99795124Y-88013138D01*
X99630137Y-88100126D01*
X99624924Y-88104531D01*
X99624920Y-88104534D01*
X99584149Y-88138989D01*
X99487678Y-88220514D01*
X99483535Y-88225933D01*
X99483533Y-88225935D01*
X99389876Y-88348433D01*
X99374393Y-88368684D01*
X99371510Y-88374867D01*
X99371508Y-88374870D01*
X99327290Y-88469696D01*
X99295568Y-88537724D01*
X99254881Y-88719747D01*
X99254230Y-88906260D01*
X96647000Y-88906260D01*
X96647000Y-87561200D01*
X101219500Y-87561200D01*
X101220190Y-87567765D01*
X101235674Y-87715082D01*
X101239462Y-87751127D01*
X101241502Y-87757405D01*
X101241502Y-87757406D01*
X101255275Y-87799794D01*
X101298476Y-87932754D01*
X101301779Y-87938476D01*
X101301780Y-87938477D01*
X101317336Y-87965420D01*
X101393963Y-88098142D01*
X101398381Y-88103049D01*
X101398382Y-88103050D01*
X101516948Y-88234731D01*
X101521749Y-88240063D01*
X101527091Y-88243944D01*
X101527093Y-88243946D01*
X101603944Y-88299781D01*
X101676250Y-88352314D01*
X101682278Y-88354998D01*
X101682280Y-88354999D01*
X101844682Y-88427305D01*
X101850713Y-88429990D01*
X101935212Y-88447951D01*
X102031056Y-88468324D01*
X102031061Y-88468324D01*
X102037513Y-88469696D01*
X102228487Y-88469696D01*
X102234939Y-88468324D01*
X102234944Y-88468324D01*
X102330788Y-88447951D01*
X102415287Y-88429990D01*
X102421318Y-88427305D01*
X102583720Y-88354999D01*
X102583722Y-88354998D01*
X102589750Y-88352314D01*
X102662056Y-88299781D01*
X102738907Y-88243946D01*
X102738909Y-88243944D01*
X102744251Y-88240063D01*
X102749052Y-88234731D01*
X102867618Y-88103050D01*
X102867619Y-88103049D01*
X102872037Y-88098142D01*
X102948664Y-87965420D01*
X102964220Y-87938477D01*
X102964221Y-87938476D01*
X102967524Y-87932754D01*
X103010725Y-87799794D01*
X103024498Y-87757406D01*
X103024498Y-87757405D01*
X103026538Y-87751127D01*
X103028724Y-87730329D01*
X103055737Y-87664672D01*
X103113959Y-87624043D01*
X103154034Y-87617500D01*
X110642406Y-87617500D01*
X110710527Y-87637502D01*
X110729751Y-87653842D01*
X110730025Y-87653538D01*
X110734927Y-87657952D01*
X110739349Y-87662863D01*
X110744691Y-87666744D01*
X110744693Y-87666746D01*
X110869477Y-87757406D01*
X110893850Y-87775114D01*
X110899878Y-87777798D01*
X110899880Y-87777799D01*
X110949282Y-87799794D01*
X111068313Y-87852790D01*
X111161713Y-87872643D01*
X111248656Y-87891124D01*
X111248661Y-87891124D01*
X111255113Y-87892496D01*
X111446087Y-87892496D01*
X111452539Y-87891124D01*
X111452544Y-87891124D01*
X111539487Y-87872643D01*
X111632887Y-87852790D01*
X111751918Y-87799794D01*
X111801320Y-87777799D01*
X111801322Y-87777798D01*
X111807350Y-87775114D01*
X111831723Y-87757406D01*
X111956507Y-87666746D01*
X111956509Y-87666744D01*
X111961851Y-87662863D01*
X112044517Y-87571053D01*
X112085218Y-87525850D01*
X112085219Y-87525849D01*
X112089637Y-87520942D01*
X112185124Y-87355554D01*
X112234608Y-87203257D01*
X112242098Y-87180206D01*
X112242098Y-87180205D01*
X112244138Y-87173927D01*
X112258132Y-87040787D01*
X112263410Y-86990565D01*
X112264100Y-86984000D01*
X112244138Y-86794073D01*
X112191615Y-86632423D01*
X127827255Y-86632423D01*
X127835638Y-86684471D01*
X127838212Y-86694793D01*
X127909230Y-86902810D01*
X127913497Y-86912533D01*
X128018556Y-87105625D01*
X128024402Y-87114491D01*
X128160486Y-87287113D01*
X128167750Y-87294875D01*
X128330967Y-87442094D01*
X128339444Y-87448528D01*
X128525122Y-87566136D01*
X128534567Y-87571053D01*
X128737406Y-87655694D01*
X128747545Y-87658950D01*
X128887345Y-87691096D01*
X128901422Y-87690257D01*
X128905000Y-87680999D01*
X128905000Y-86632115D01*
X128903659Y-86627548D01*
X129413000Y-86627548D01*
X129413000Y-87679941D01*
X129417151Y-87694079D01*
X129427798Y-87695774D01*
X129431192Y-87695096D01*
X129642333Y-87633954D01*
X129652259Y-87630143D01*
X129850065Y-87534307D01*
X129859212Y-87528876D01*
X130038041Y-87401083D01*
X130046149Y-87394182D01*
X130200893Y-87238082D01*
X130207706Y-87229933D01*
X130333940Y-87049988D01*
X130339295Y-87040787D01*
X130433399Y-86842156D01*
X130437123Y-86832197D01*
X130494968Y-86625718D01*
X130493430Y-86617351D01*
X130481137Y-86614000D01*
X129431115Y-86614000D01*
X129415876Y-86618475D01*
X129414671Y-86619865D01*
X129413000Y-86627548D01*
X128903659Y-86627548D01*
X128900525Y-86616876D01*
X128899135Y-86615671D01*
X128891452Y-86614000D01*
X127842403Y-86614000D01*
X127829222Y-86617870D01*
X127827255Y-86632423D01*
X112191615Y-86632423D01*
X112185124Y-86612446D01*
X112089637Y-86447058D01*
X112066681Y-86421562D01*
X111966273Y-86310048D01*
X111966272Y-86310047D01*
X111961851Y-86305137D01*
X111956509Y-86301256D01*
X111956507Y-86301254D01*
X111812692Y-86196767D01*
X111812691Y-86196766D01*
X111807350Y-86192886D01*
X111801322Y-86190202D01*
X111801320Y-86190201D01*
X111638918Y-86117895D01*
X111638917Y-86117895D01*
X111632887Y-86115210D01*
X111529424Y-86093218D01*
X111452544Y-86076876D01*
X111452539Y-86076876D01*
X111446087Y-86075504D01*
X111255113Y-86075504D01*
X111248661Y-86076876D01*
X111248656Y-86076876D01*
X111171776Y-86093218D01*
X111068313Y-86115210D01*
X111062283Y-86117895D01*
X111062282Y-86117895D01*
X110899880Y-86190201D01*
X110899878Y-86190202D01*
X110893850Y-86192886D01*
X110888509Y-86196766D01*
X110888508Y-86196767D01*
X110744693Y-86301254D01*
X110744691Y-86301256D01*
X110739349Y-86305137D01*
X110734928Y-86310047D01*
X110730025Y-86314462D01*
X110728899Y-86313211D01*
X110675600Y-86346049D01*
X110642406Y-86350500D01*
X102788583Y-86350500D01*
X102777679Y-86349986D01*
X102770288Y-86348334D01*
X102762363Y-86348583D01*
X102762362Y-86348583D01*
X102703347Y-86350438D01*
X102699389Y-86350500D01*
X102670622Y-86350500D01*
X102666337Y-86351041D01*
X102654503Y-86351973D01*
X102628486Y-86352791D01*
X102618236Y-86353113D01*
X102618235Y-86353113D01*
X102610316Y-86353362D01*
X102602708Y-86355572D01*
X102602703Y-86355573D01*
X102590861Y-86359013D01*
X102571507Y-86363021D01*
X102559279Y-86364566D01*
X102551412Y-86365560D01*
X102544044Y-86368477D01*
X102544037Y-86368479D01*
X102510299Y-86381837D01*
X102499069Y-86385682D01*
X102464231Y-86395803D01*
X102464230Y-86395804D01*
X102456621Y-86398014D01*
X102439188Y-86408324D01*
X102421441Y-86417018D01*
X102402600Y-86424478D01*
X102396185Y-86429139D01*
X102366829Y-86450467D01*
X102356912Y-86456982D01*
X102318858Y-86479487D01*
X102318440Y-86479855D01*
X102304358Y-86493937D01*
X102289325Y-86506778D01*
X102273117Y-86518554D01*
X102268068Y-86524657D01*
X102268067Y-86524658D01*
X102245170Y-86552336D01*
X102237180Y-86561115D01*
X102182496Y-86615799D01*
X102120184Y-86649825D01*
X102093401Y-86652704D01*
X102037513Y-86652704D01*
X102031061Y-86654076D01*
X102031056Y-86654076D01*
X101944113Y-86672557D01*
X101850713Y-86692410D01*
X101844683Y-86695095D01*
X101844682Y-86695095D01*
X101682280Y-86767401D01*
X101682278Y-86767402D01*
X101676250Y-86770086D01*
X101670909Y-86773966D01*
X101670908Y-86773967D01*
X101527093Y-86878454D01*
X101527091Y-86878456D01*
X101521749Y-86882337D01*
X101517328Y-86887247D01*
X101517327Y-86887248D01*
X101436123Y-86977435D01*
X101393963Y-87024258D01*
X101298476Y-87189646D01*
X101296434Y-87195931D01*
X101246612Y-87349269D01*
X101239462Y-87371273D01*
X101219500Y-87561200D01*
X96647000Y-87561200D01*
X96647000Y-84756260D01*
X99254230Y-84756260D01*
X99255673Y-84762933D01*
X99255673Y-84762935D01*
X99283340Y-84890895D01*
X99293646Y-84938563D01*
X99371288Y-85108149D01*
X99375392Y-85113595D01*
X99375393Y-85113597D01*
X99428069Y-85183500D01*
X99483536Y-85257106D01*
X99488715Y-85261545D01*
X99488716Y-85261546D01*
X99575922Y-85336291D01*
X99625151Y-85378486D01*
X99789527Y-85466623D01*
X99968995Y-85517408D01*
X99975801Y-85517812D01*
X99975805Y-85517813D01*
X100122818Y-85526546D01*
X100155182Y-85528469D01*
X100339400Y-85499292D01*
X100345746Y-85496805D01*
X100345750Y-85496804D01*
X100506701Y-85433728D01*
X100506705Y-85433726D01*
X100513056Y-85431237D01*
X100668047Y-85327479D01*
X100797142Y-85192860D01*
X100802856Y-85183500D01*
X100890762Y-85039486D01*
X100890763Y-85039485D01*
X100894318Y-85033660D01*
X100955041Y-84857307D01*
X100976479Y-84672028D01*
X100976500Y-84666000D01*
X100956357Y-84480576D01*
X100896866Y-84303803D01*
X100800804Y-84143929D01*
X100672652Y-84008412D01*
X100518389Y-83903575D01*
X100512059Y-83901043D01*
X100512055Y-83901041D01*
X100351549Y-83836843D01*
X100351544Y-83836842D01*
X100345212Y-83834309D01*
X100338485Y-83833195D01*
X100338480Y-83833194D01*
X100167939Y-83804961D01*
X100167936Y-83804961D01*
X100161202Y-83803846D01*
X100154386Y-83804203D01*
X100154381Y-83804203D01*
X100004586Y-83812054D01*
X99974943Y-83813608D01*
X99795124Y-83863138D01*
X99630137Y-83950126D01*
X99624924Y-83954531D01*
X99624920Y-83954534D01*
X99565707Y-84004574D01*
X99487678Y-84070514D01*
X99483535Y-84075933D01*
X99483533Y-84075935D01*
X99378539Y-84213261D01*
X99374393Y-84218684D01*
X99295568Y-84387724D01*
X99254881Y-84569747D01*
X99254230Y-84756260D01*
X96647000Y-84756260D01*
X96647000Y-82970000D01*
X127795500Y-82970000D01*
X127795500Y-84670000D01*
X127800727Y-84743079D01*
X127819130Y-84805754D01*
X127836162Y-84863759D01*
X127841904Y-84883316D01*
X127846775Y-84890895D01*
X127916051Y-84998691D01*
X127916053Y-84998694D01*
X127920923Y-85006271D01*
X127927733Y-85012172D01*
X128024569Y-85096082D01*
X128024572Y-85096084D01*
X128031381Y-85101984D01*
X128164330Y-85162700D01*
X128171035Y-85163664D01*
X128229813Y-85201437D01*
X128259306Y-85266017D01*
X128249203Y-85336291D01*
X128217171Y-85379115D01*
X128185879Y-85406269D01*
X128178464Y-85413895D01*
X128039100Y-85583860D01*
X128033075Y-85592627D01*
X127924342Y-85783644D01*
X127919877Y-85793308D01*
X127844882Y-85999916D01*
X127842111Y-86010184D01*
X127828008Y-86088174D01*
X127829427Y-86101414D01*
X127844062Y-86106000D01*
X130478079Y-86106000D01*
X130491610Y-86102027D01*
X130492876Y-86093218D01*
X130445954Y-85912433D01*
X130442419Y-85902395D01*
X130352147Y-85701998D01*
X130346967Y-85692692D01*
X130224218Y-85510366D01*
X130217557Y-85502080D01*
X130089331Y-85367665D01*
X130056784Y-85304568D01*
X130063515Y-85233891D01*
X130107389Y-85178074D01*
X130145003Y-85159797D01*
X130213670Y-85139635D01*
X130213672Y-85139634D01*
X130222316Y-85137096D01*
X130286135Y-85096082D01*
X130337691Y-85062949D01*
X130337694Y-85062947D01*
X130345271Y-85058077D01*
X130385048Y-85012172D01*
X130435082Y-84954431D01*
X130435084Y-84954428D01*
X130440984Y-84947619D01*
X130501700Y-84814670D01*
X130521707Y-84675518D01*
X130521861Y-84674448D01*
X130521862Y-84674441D01*
X130522500Y-84670000D01*
X130522500Y-82970000D01*
X130517273Y-82896921D01*
X130476096Y-82756684D01*
X130430393Y-82685569D01*
X130401949Y-82641309D01*
X130401947Y-82641306D01*
X130397077Y-82633729D01*
X130390267Y-82627828D01*
X130293431Y-82543918D01*
X130293428Y-82543916D01*
X130286619Y-82538016D01*
X130153670Y-82477300D01*
X130144755Y-82476018D01*
X130144754Y-82476018D01*
X130013448Y-82457139D01*
X130013441Y-82457138D01*
X130009000Y-82456500D01*
X128309000Y-82456500D01*
X128235921Y-82461727D01*
X128182884Y-82477300D01*
X128104330Y-82500365D01*
X128104328Y-82500366D01*
X128095684Y-82502904D01*
X128088105Y-82507775D01*
X127980309Y-82577051D01*
X127980306Y-82577053D01*
X127972729Y-82581923D01*
X127966828Y-82588733D01*
X127882918Y-82685569D01*
X127882916Y-82685572D01*
X127877016Y-82692381D01*
X127816300Y-82825330D01*
X127815018Y-82834245D01*
X127815018Y-82834246D01*
X127796139Y-82965552D01*
X127796138Y-82965559D01*
X127795500Y-82970000D01*
X96647000Y-82970000D01*
X96647000Y-82168000D01*
X96667002Y-82099879D01*
X96720658Y-82053386D01*
X96773000Y-82042000D01*
X98452622Y-82042000D01*
X98453392Y-82042002D01*
X98494621Y-82042254D01*
X98523015Y-82034139D01*
X98539750Y-82030566D01*
X98568982Y-82026380D01*
X98577153Y-82022665D01*
X98577156Y-82022664D01*
X98592307Y-82015775D01*
X98609831Y-82009327D01*
X98625843Y-82004751D01*
X98625846Y-82004750D01*
X98634473Y-82002284D01*
X98642063Y-81997495D01*
X98642068Y-81997493D01*
X98659440Y-81986532D01*
X98674522Y-81978394D01*
X98679076Y-81976323D01*
X98701389Y-81966178D01*
X98720804Y-81949449D01*
X98735809Y-81938346D01*
X98749894Y-81929459D01*
X98757486Y-81924669D01*
X98777026Y-81902544D01*
X98789219Y-81890500D01*
X98804777Y-81877095D01*
X98804780Y-81877091D01*
X98811578Y-81871234D01*
X98825517Y-81849729D01*
X98836807Y-81834855D01*
X98847826Y-81822378D01*
X98853769Y-81815649D01*
X98866317Y-81788923D01*
X98874633Y-81773952D01*
X98890690Y-81749179D01*
X98893264Y-81740573D01*
X98898034Y-81724623D01*
X98904696Y-81707178D01*
X98911769Y-81692113D01*
X98911769Y-81692111D01*
X98915584Y-81683987D01*
X98916964Y-81675123D01*
X98916967Y-81675114D01*
X98920127Y-81654820D01*
X98923908Y-81638109D01*
X98929793Y-81618428D01*
X98929793Y-81618425D01*
X98932365Y-81609826D01*
X98932420Y-81600853D01*
X98932566Y-81577002D01*
X98932684Y-81574162D01*
X98933000Y-81572135D01*
X98933000Y-81506378D01*
X98933002Y-81505608D01*
X98933239Y-81466817D01*
X98933254Y-81464378D01*
X98933016Y-81463546D01*
X98933000Y-81463308D01*
X98933000Y-80214331D01*
X98956713Y-80140756D01*
X99161500Y-79856053D01*
X101179346Y-77050755D01*
X102083160Y-75794233D01*
X109892338Y-75794233D01*
X109929002Y-76021861D01*
X110003494Y-76240056D01*
X110113685Y-76442580D01*
X110256424Y-76623644D01*
X110309539Y-76671553D01*
X110423659Y-76774489D01*
X110423665Y-76774494D01*
X110427629Y-76778069D01*
X110622406Y-76901439D01*
X110835184Y-76990228D01*
X110840387Y-76991425D01*
X110840392Y-76991426D01*
X111054678Y-77040701D01*
X111054683Y-77040702D01*
X111059881Y-77041897D01*
X111065209Y-77042200D01*
X111065212Y-77042200D01*
X111215877Y-77050755D01*
X111290071Y-77054968D01*
X111295378Y-77054368D01*
X111295380Y-77054368D01*
X111469354Y-77034700D01*
X111519173Y-77029068D01*
X111524288Y-77027587D01*
X111524292Y-77027586D01*
X111649161Y-76991426D01*
X111740635Y-76964937D01*
X111948125Y-76864409D01*
X111952463Y-76861309D01*
X111952468Y-76861306D01*
X112131370Y-76733459D01*
X112135711Y-76730357D01*
X112298030Y-76566617D01*
X112301090Y-76562255D01*
X112301095Y-76562249D01*
X112419634Y-76393271D01*
X112475130Y-76348990D01*
X112545755Y-76341743D01*
X112609088Y-76373829D01*
X112633461Y-76405410D01*
X112653685Y-76442580D01*
X112796424Y-76623644D01*
X112849539Y-76671553D01*
X112963659Y-76774489D01*
X112963665Y-76774494D01*
X112967629Y-76778069D01*
X113162406Y-76901439D01*
X113375184Y-76990228D01*
X113380387Y-76991425D01*
X113380392Y-76991426D01*
X113594678Y-77040701D01*
X113594683Y-77040702D01*
X113599881Y-77041897D01*
X113605209Y-77042200D01*
X113605212Y-77042200D01*
X113755877Y-77050755D01*
X113830071Y-77054968D01*
X113835378Y-77054368D01*
X113835380Y-77054368D01*
X114009354Y-77034700D01*
X114059173Y-77029068D01*
X114064288Y-77027587D01*
X114064292Y-77027586D01*
X114189161Y-76991426D01*
X114280635Y-76964937D01*
X114488125Y-76864409D01*
X114492463Y-76861309D01*
X114492468Y-76861306D01*
X114671370Y-76733459D01*
X114675711Y-76730357D01*
X114838030Y-76566617D01*
X114841090Y-76562255D01*
X114841095Y-76562249D01*
X114959634Y-76393271D01*
X115015130Y-76348990D01*
X115085755Y-76341743D01*
X115149088Y-76373829D01*
X115173461Y-76405410D01*
X115193685Y-76442580D01*
X115336424Y-76623644D01*
X115389539Y-76671553D01*
X115503659Y-76774489D01*
X115503665Y-76774494D01*
X115507629Y-76778069D01*
X115702406Y-76901439D01*
X115915184Y-76990228D01*
X115920387Y-76991425D01*
X115920392Y-76991426D01*
X116134678Y-77040701D01*
X116134683Y-77040702D01*
X116139881Y-77041897D01*
X116145209Y-77042200D01*
X116145212Y-77042200D01*
X116295877Y-77050755D01*
X116370071Y-77054968D01*
X116375378Y-77054368D01*
X116375380Y-77054368D01*
X116549354Y-77034700D01*
X116599173Y-77029068D01*
X116604288Y-77027587D01*
X116604292Y-77027586D01*
X116729161Y-76991426D01*
X116820635Y-76964937D01*
X117028125Y-76864409D01*
X117032463Y-76861309D01*
X117032468Y-76861306D01*
X117211370Y-76733459D01*
X117215711Y-76730357D01*
X117378030Y-76566617D01*
X117499953Y-76392816D01*
X117555449Y-76348536D01*
X117626075Y-76341289D01*
X117689407Y-76373375D01*
X117713781Y-76404958D01*
X117731550Y-76437617D01*
X117737402Y-76446491D01*
X117873486Y-76619113D01*
X117880750Y-76626875D01*
X118043967Y-76774094D01*
X118052444Y-76780528D01*
X118238122Y-76898136D01*
X118247567Y-76903053D01*
X118450406Y-76987694D01*
X118460545Y-76990950D01*
X118600345Y-77023096D01*
X118614422Y-77022257D01*
X118618000Y-77012999D01*
X118618001Y-75946002D01*
X118618000Y-75945996D01*
X118618000Y-75437998D01*
X119125999Y-75437998D01*
X119126000Y-75438004D01*
X119125999Y-77011941D01*
X119130150Y-77026079D01*
X119140795Y-77027774D01*
X119144201Y-77027094D01*
X119355333Y-76965954D01*
X119365259Y-76962143D01*
X119563065Y-76866307D01*
X119572212Y-76860876D01*
X119751041Y-76733083D01*
X119759149Y-76726182D01*
X119913893Y-76570082D01*
X119920706Y-76561934D01*
X120039368Y-76392781D01*
X120094864Y-76348501D01*
X120165489Y-76341254D01*
X120228822Y-76373340D01*
X120253196Y-76404923D01*
X120271133Y-76437890D01*
X120273685Y-76442580D01*
X120416424Y-76623644D01*
X120469539Y-76671553D01*
X120583659Y-76774489D01*
X120583665Y-76774494D01*
X120587629Y-76778069D01*
X120782406Y-76901439D01*
X120995184Y-76990228D01*
X121000387Y-76991425D01*
X121000392Y-76991426D01*
X121214678Y-77040701D01*
X121214683Y-77040702D01*
X121219881Y-77041897D01*
X121225209Y-77042200D01*
X121225212Y-77042200D01*
X121375877Y-77050755D01*
X121450071Y-77054968D01*
X121455378Y-77054368D01*
X121455380Y-77054368D01*
X121629354Y-77034700D01*
X121679173Y-77029068D01*
X121684288Y-77027587D01*
X121684292Y-77027586D01*
X121809161Y-76991426D01*
X121900635Y-76964937D01*
X122108125Y-76864409D01*
X122112463Y-76861309D01*
X122112468Y-76861306D01*
X122291370Y-76733459D01*
X122295711Y-76730357D01*
X122401489Y-76623653D01*
X122463652Y-76589356D01*
X122534490Y-76594113D01*
X122591510Y-76636411D01*
X122611868Y-76676861D01*
X122626350Y-76726182D01*
X122634904Y-76755316D01*
X122639775Y-76762895D01*
X122709051Y-76870691D01*
X122709053Y-76870694D01*
X122713923Y-76878271D01*
X122720733Y-76884172D01*
X122817569Y-76968082D01*
X122817572Y-76968084D01*
X122824381Y-76973984D01*
X122832579Y-76977728D01*
X122944998Y-77029068D01*
X122957330Y-77034700D01*
X122966245Y-77035982D01*
X122966246Y-77035982D01*
X123097552Y-77054861D01*
X123097559Y-77054862D01*
X123102000Y-77055500D01*
X124802000Y-77055500D01*
X124875079Y-77050273D01*
X124967636Y-77023096D01*
X125006670Y-77011635D01*
X125006672Y-77011634D01*
X125015316Y-77009096D01*
X125082446Y-76965954D01*
X125130691Y-76934949D01*
X125130694Y-76934947D01*
X125138271Y-76930077D01*
X125163086Y-76901439D01*
X125228082Y-76826431D01*
X125228084Y-76826428D01*
X125233984Y-76819619D01*
X125294700Y-76686670D01*
X125301926Y-76636411D01*
X125314861Y-76546448D01*
X125314862Y-76546441D01*
X125315500Y-76542000D01*
X125315500Y-74842000D01*
X125310273Y-74768921D01*
X125282596Y-74674661D01*
X125271635Y-74637330D01*
X125271634Y-74637328D01*
X125269096Y-74628684D01*
X125207713Y-74533171D01*
X125194949Y-74513309D01*
X125194947Y-74513306D01*
X125190077Y-74505729D01*
X125147384Y-74468735D01*
X125086431Y-74415918D01*
X125086428Y-74415916D01*
X125079619Y-74410016D01*
X125071421Y-74406272D01*
X124954864Y-74353042D01*
X124954863Y-74353042D01*
X124946670Y-74349300D01*
X124937755Y-74348018D01*
X124937754Y-74348018D01*
X124806448Y-74329139D01*
X124806441Y-74329138D01*
X124802000Y-74328500D01*
X123102000Y-74328500D01*
X123028921Y-74333727D01*
X122975884Y-74349300D01*
X122897330Y-74372365D01*
X122897328Y-74372366D01*
X122888684Y-74374904D01*
X122868350Y-74387972D01*
X122773309Y-74449051D01*
X122773306Y-74449053D01*
X122765729Y-74453923D01*
X122759828Y-74460733D01*
X122675918Y-74557569D01*
X122675916Y-74557572D01*
X122670016Y-74564381D01*
X122609300Y-74697330D01*
X122608215Y-74704875D01*
X122570209Y-74764011D01*
X122505628Y-74793504D01*
X122435354Y-74783399D01*
X122396528Y-74755757D01*
X122319167Y-74674661D01*
X122319162Y-74674656D01*
X122315482Y-74670799D01*
X122130504Y-74533171D01*
X122125753Y-74530755D01*
X122125749Y-74530753D01*
X121929740Y-74431097D01*
X121929739Y-74431097D01*
X121924982Y-74428678D01*
X121814887Y-74394493D01*
X121709895Y-74361891D01*
X121709889Y-74361890D01*
X121704792Y-74360307D01*
X121599798Y-74346391D01*
X121481515Y-74330714D01*
X121481510Y-74330714D01*
X121476230Y-74330014D01*
X121470900Y-74330214D01*
X121470899Y-74330214D01*
X121377320Y-74333727D01*
X121245831Y-74338663D01*
X121201246Y-74348018D01*
X121025411Y-74384912D01*
X121025408Y-74384913D01*
X121020184Y-74386009D01*
X120805740Y-74470697D01*
X120608631Y-74590306D01*
X120604601Y-74593803D01*
X120477280Y-74704286D01*
X120434492Y-74741415D01*
X120431109Y-74745541D01*
X120431105Y-74745545D01*
X120406413Y-74775660D01*
X120288304Y-74919705D01*
X120252116Y-74983278D01*
X120251842Y-74983760D01*
X120200760Y-75033066D01*
X120131130Y-75046928D01*
X120065059Y-75020945D01*
X120037820Y-74991795D01*
X119937218Y-74842366D01*
X119930557Y-74834080D01*
X119778830Y-74675030D01*
X119770873Y-74667990D01*
X119594523Y-74536782D01*
X119585486Y-74531178D01*
X119389550Y-74431559D01*
X119379699Y-74427559D01*
X119169778Y-74362378D01*
X119159396Y-74360095D01*
X119143959Y-74358049D01*
X119129792Y-74360246D01*
X119126000Y-74373430D01*
X119125999Y-75437998D01*
X118618000Y-75437998D01*
X118618001Y-74375716D01*
X118614028Y-74362185D01*
X118603421Y-74360660D01*
X118485555Y-74385391D01*
X118475358Y-74388451D01*
X118270932Y-74469182D01*
X118261396Y-74473916D01*
X118073486Y-74587942D01*
X118064896Y-74594206D01*
X117898884Y-74738264D01*
X117891464Y-74745895D01*
X117752100Y-74915860D01*
X117746079Y-74924622D01*
X117712427Y-74983739D01*
X117661344Y-75033045D01*
X117591714Y-75046906D01*
X117525643Y-75020922D01*
X117498405Y-74991773D01*
X117397607Y-74842053D01*
X117394627Y-74837626D01*
X117235482Y-74670799D01*
X117050504Y-74533171D01*
X117045753Y-74530755D01*
X117045749Y-74530753D01*
X116849740Y-74431097D01*
X116849739Y-74431097D01*
X116844982Y-74428678D01*
X116734887Y-74394493D01*
X116629895Y-74361891D01*
X116629889Y-74361890D01*
X116624792Y-74360307D01*
X116519798Y-74346391D01*
X116401515Y-74330714D01*
X116401510Y-74330714D01*
X116396230Y-74330014D01*
X116390900Y-74330214D01*
X116390899Y-74330214D01*
X116297320Y-74333727D01*
X116165831Y-74338663D01*
X116121246Y-74348018D01*
X115945411Y-74384912D01*
X115945408Y-74384913D01*
X115940184Y-74386009D01*
X115725740Y-74470697D01*
X115528631Y-74590306D01*
X115524601Y-74593803D01*
X115397280Y-74704286D01*
X115354492Y-74741415D01*
X115351109Y-74745541D01*
X115351105Y-74745545D01*
X115326413Y-74775660D01*
X115208304Y-74919705D01*
X115205667Y-74924338D01*
X115205666Y-74924339D01*
X115172116Y-74983278D01*
X115121033Y-75032584D01*
X115051402Y-75046445D01*
X114985332Y-75020461D01*
X114958094Y-74991312D01*
X114952686Y-74983278D01*
X114857818Y-74842366D01*
X114857607Y-74842052D01*
X114857605Y-74842050D01*
X114854627Y-74837626D01*
X114695482Y-74670799D01*
X114510504Y-74533171D01*
X114505753Y-74530755D01*
X114505749Y-74530753D01*
X114309740Y-74431097D01*
X114309739Y-74431097D01*
X114304982Y-74428678D01*
X114194887Y-74394493D01*
X114089895Y-74361891D01*
X114089889Y-74361890D01*
X114084792Y-74360307D01*
X113979798Y-74346391D01*
X113861515Y-74330714D01*
X113861510Y-74330714D01*
X113856230Y-74330014D01*
X113850900Y-74330214D01*
X113850899Y-74330214D01*
X113757320Y-74333727D01*
X113625831Y-74338663D01*
X113581246Y-74348018D01*
X113405411Y-74384912D01*
X113405408Y-74384913D01*
X113400184Y-74386009D01*
X113185740Y-74470697D01*
X112988631Y-74590306D01*
X112984601Y-74593803D01*
X112857280Y-74704286D01*
X112814492Y-74741415D01*
X112811109Y-74745541D01*
X112811105Y-74745545D01*
X112786413Y-74775660D01*
X112668304Y-74919705D01*
X112665667Y-74924338D01*
X112665666Y-74924339D01*
X112632116Y-74983278D01*
X112581033Y-75032584D01*
X112511402Y-75046445D01*
X112445332Y-75020461D01*
X112418094Y-74991312D01*
X112412686Y-74983278D01*
X112317818Y-74842366D01*
X112317607Y-74842052D01*
X112317605Y-74842050D01*
X112314627Y-74837626D01*
X112155482Y-74670799D01*
X111970504Y-74533171D01*
X111965753Y-74530755D01*
X111965749Y-74530753D01*
X111769740Y-74431097D01*
X111769739Y-74431097D01*
X111764982Y-74428678D01*
X111654887Y-74394493D01*
X111549895Y-74361891D01*
X111549889Y-74361890D01*
X111544792Y-74360307D01*
X111439798Y-74346391D01*
X111321515Y-74330714D01*
X111321510Y-74330714D01*
X111316230Y-74330014D01*
X111310900Y-74330214D01*
X111310899Y-74330214D01*
X111217320Y-74333727D01*
X111085831Y-74338663D01*
X111041246Y-74348018D01*
X110865411Y-74384912D01*
X110865408Y-74384913D01*
X110860184Y-74386009D01*
X110645740Y-74470697D01*
X110448631Y-74590306D01*
X110444601Y-74593803D01*
X110317280Y-74704286D01*
X110274492Y-74741415D01*
X110271109Y-74745541D01*
X110271105Y-74745545D01*
X110246413Y-74775660D01*
X110128304Y-74919705D01*
X110125666Y-74924339D01*
X110125663Y-74924344D01*
X110055884Y-75046928D01*
X110014245Y-75120077D01*
X109935578Y-75336802D01*
X109934629Y-75342051D01*
X109934628Y-75342054D01*
X109912890Y-75462265D01*
X109894551Y-75563683D01*
X109892338Y-75794233D01*
X102083160Y-75794233D01*
X103854654Y-73331425D01*
X103910669Y-73287804D01*
X103956941Y-73279000D01*
X130739060Y-73279000D01*
X130807181Y-73299002D01*
G37*
%TD.AperFunction*%
%TD*%
M02*
